<svg xmlns="http://www.w3.org/2000/svg" viewBox="0 0 1200 900"><rect width="1200" height="900" fill="#0d0d0d"/><path d="M-900 900L0 0" stroke="#fff" fill="none" stroke-width="2" stroke-opacity=".3"/><path d="M-864 900L36 0" stroke="#fff" fill="none" stroke-width="2" stroke-opacity=".3"/><path d="M-828 900L72 0" stroke="#fff" fill="none" stroke-width="2" stroke-opacity=".3"/><path d="M-792 900L108 0" stroke="#fff" fill="none" stroke-width="2" stroke-opacity=".3"/><path d="M-756 900L144 0" stroke="#fff" fill="none" stroke-width="2" stroke-opacity=".3"/><path d="M-720 900L180 0" stroke="#fff" fill="none" stroke-width="2" stroke-opacity=".3"/><path d="M-684 900L216 0" stroke="#fff" fill="none" stroke-width="2" stroke-opacity=".3"/><path d="M-648 900L252 0" stroke="#fff" fill="none" stroke-width="2" stroke-opacity=".3"/><path d="M-612 900L288 0" stroke="#fff" fill="none" stroke-width="2" stroke-opacity=".3"/><path d="M-576 900L324 0" stroke="#fff" fill="none" stroke-width="2" stroke-opacity=".3"/><path d="M-540 900L360 0" stroke="#fff" fill="none" stroke-width="2" stroke-opacity=".3"/><path d="M-504 900L396 0" stroke="#fff" fill="none" stroke-width="2" stroke-opacity=".3"/><path d="M-468 900L432 0" stroke="#fff" fill="none" stroke-width="2" stroke-opacity=".3"/><path d="M-432 900L468 0" stroke="#fff" fill="none" stroke-width="2" stroke-opacity=".3"/><path d="M-396 900L504 0" stroke="#fff" fill="none" stroke-width="2" stroke-opacity=".3"/><path d="M-360 900L540 0" stroke="#fff" fill="none" stroke-width="2" stroke-opacity=".3"/><path d="M-324 900L576 0" stroke="#fff" fill="none" stroke-width="2" stroke-opacity=".3"/><path d="M-288 900L612 0" stroke="#fff" fill="none" stroke-width="2" stroke-opacity=".3"/><path d="M-252 900L648 0" stroke="#fff" fill="none" stroke-width="2" stroke-opacity=".3"/><path d="M-216 900L684 0" stroke="#fff" fill="none" stroke-width="2" stroke-opacity=".3"/><path d="M-180 900L720 0" stroke="#fff" fill="none" stroke-width="2" stroke-opacity=".3"/><path d="M-144 900L756 0" stroke="#fff" fill="none" stroke-width="2" stroke-opacity=".3"/><path d="M-108 900L792 0" stroke="#fff" fill="none" stroke-width="2" stroke-opacity=".3"/><path d="M-72 900L828 0" stroke="#fff" fill="none" stroke-width="2" stroke-opacity=".3"/><path d="M-36 900L864 0" stroke="#fff" fill="none" stroke-width="2" stroke-opacity=".3"/><path d="M0 900L900 0" stroke="#fff" fill="none" stroke-width="2" stroke-opacity=".3"/><path d="M36 900L936 0" stroke="#fff" fill="none" stroke-width="2" stroke-opacity=".3"/><path d="M72 900L972 0" stroke="#fff" fill="none" stroke-width="2" stroke-opacity=".3"/><path d="M108 900L1008 0" stroke="#fff" fill="none" stroke-width="2" stroke-opacity=".3"/><path d="M144 900L1044 0" stroke="#fff" fill="none" stroke-width="2" stroke-opacity=".3"/><path d="M180 900L1080 0" stroke="#fff" fill="none" stroke-width="2" stroke-opacity=".3"/><path d="M216 900L1116 0" stroke="#fff" fill="none" stroke-width="2" stroke-opacity=".3"/><path d="M252 900L1152 0" stroke="#fff" fill="none" stroke-width="2" stroke-opacity=".3"/><path d="M288 900L1188 0" stroke="#fff" fill="none" stroke-width="2" stroke-opacity=".3"/><path d="M324 900L1224 0" stroke="#fff" fill="none" stroke-width="2" stroke-opacity=".3"/><path d="M360 900L1260 0" stroke="#fff" fill="none" stroke-width="2" stroke-opacity=".3"/><path d="M396 900L1296 0" stroke="#fff" fill="none" stroke-width="2" stroke-opacity=".3"/><path d="M432 900L1332 0" stroke="#fff" fill="none" stroke-width="2" stroke-opacity=".3"/><path d="M468 900L1368 0" stroke="#fff" fill="none" stroke-width="2" stroke-opacity=".3"/><path d="M504 900L1404 0" stroke="#fff" fill="none" stroke-width="2" stroke-opacity=".3"/><path d="M540 900L1440 0" stroke="#fff" fill="none" stroke-width="2" stroke-opacity=".3"/><path d="M576 900L1476 0" stroke="#fff" fill="none" stroke-width="2" stroke-opacity=".3"/><path d="M612 900L1512 0" stroke="#fff" fill="none" stroke-width="2" stroke-opacity=".3"/><path d="M648 900L1548 0" stroke="#fff" fill="none" stroke-width="2" stroke-opacity=".3"/><path d="M684 900L1584 0" stroke="#fff" fill="none" stroke-width="2" stroke-opacity=".3"/><path d="M720 900L1620 0" stroke="#fff" fill="none" stroke-width="2" stroke-opacity=".3"/><path d="M756 900L1656 0" stroke="#fff" fill="none" stroke-width="2" stroke-opacity=".3"/><path d="M792 900L1692 0" stroke="#fff" fill="none" stroke-width="2" stroke-opacity=".3"/><path d="M828 900L1728 0" stroke="#fff" fill="none" stroke-width="2" stroke-opacity=".3"/><path d="M864 900L1764 0" stroke="#fff" fill="none" stroke-width="2" stroke-opacity=".3"/><path d="M900 900L1800 0" stroke="#fff" fill="none" stroke-width="2" stroke-opacity=".3"/><path d="M936 900L1836 0" stroke="#fff" fill="none" stroke-width="2" stroke-opacity=".3"/><path d="M972 900L1872 0" stroke="#fff" fill="none" stroke-width="2" stroke-opacity=".3"/><path d="M1008 900L1908 0" stroke="#fff" fill="none" stroke-width="2" stroke-opacity=".3"/><path d="M1044 900L1944 0" stroke="#fff" fill="none" stroke-width="2" stroke-opacity=".3"/><path d="M1080 900L1980 0" stroke="#fff" fill="none" stroke-width="2" stroke-opacity=".3"/><path d="M1116 900L2016 0" stroke="#fff" fill="none" stroke-width="2" stroke-opacity=".3"/><path d="M1152 900L2052 0" stroke="#fff" fill="none" stroke-width="2" stroke-opacity=".3"/><path d="M1188 900L2088 0" stroke="#fff" fill="none" stroke-width="2" stroke-opacity=".3"/></svg>