<svg xmlns="http://www.w3.org/2000/svg" viewBox="0 0 1200 1500"><rect width="1200" height="1500" fill="#0d0d0d"/><path d="M0 0V1500" stroke="#fff" fill="none" stroke-width="2" stroke-opacity=".12"/><path d="M60 0V1500" stroke="#fff" fill="none" stroke-width="2" stroke-opacity=".12"/><path d="M120 0V1500" stroke="#fff" fill="none" stroke-width="2" stroke-opacity=".12"/><path d="M180 0V1500" stroke="#fff" fill="none" stroke-width="2" stroke-opacity=".12"/><path d="M240 0V1500" stroke="#fff" fill="none" stroke-width="2" stroke-opacity=".12"/><path d="M300 0V1500" stroke="#fff" fill="none" stroke-width="2" stroke-opacity=".12"/><path d="M360 0V1500" stroke="#fff" fill="none" stroke-width="2" stroke-opacity=".12"/><path d="M420 0V1500" stroke="#fff" fill="none" stroke-width="2" stroke-opacity=".12"/><path d="M480 0V1500" stroke="#fff" fill="none" stroke-width="2" stroke-opacity=".12"/><path d="M540 0V1500" stroke="#fff" fill="none" stroke-width="2" stroke-opacity=".12"/><path d="M600 0V1500" stroke="#fff" fill="none" stroke-width="2" stroke-opacity=".12"/><path d="M660 0V1500" stroke="#fff" fill="none" stroke-width="2" stroke-opacity=".12"/><path d="M720 0V1500" stroke="#fff" fill="none" stroke-width="2" stroke-opacity=".12"/><path d="M780 0V1500" stroke="#fff" fill="none" stroke-width="2" stroke-opacity=".12"/><path d="M840 0V1500" stroke="#fff" fill="none" stroke-width="2" stroke-opacity=".12"/><path d="M900 0V1500" stroke="#fff" fill="none" stroke-width="2" stroke-opacity=".12"/><path d="M960 0V1500" stroke="#fff" fill="none" stroke-width="2" stroke-opacity=".12"/><path d="M1020 0V1500" stroke="#fff" fill="none" stroke-width="2" stroke-opacity=".12"/><path d="M1080 0V1500" stroke="#fff" fill="none" stroke-width="2" stroke-opacity=".12"/><path d="M1140 0V1500" stroke="#fff" fill="none" stroke-width="2" stroke-opacity=".12"/><path d="M1200 0V1500" stroke="#fff" fill="none" stroke-width="2" stroke-opacity=".12"/><path d="M0 0H1200" stroke="#fff" fill="none" stroke-width="2" stroke-opacity=".12"/><path d="M0 60H1200" stroke="#fff" fill="none" stroke-width="2" stroke-opacity=".12"/><path d="M0 120H1200" stroke="#fff" fill="none" stroke-width="2" stroke-opacity=".12"/><path d="M0 180H1200" stroke="#fff" fill="none" stroke-width="2" stroke-opacity=".12"/><path d="M0 240H1200" stroke="#fff" fill="none" stroke-width="2" stroke-opacity=".12"/><path d="M0 300H1200" stroke="#fff" fill="none" stroke-width="2" stroke-opacity=".12"/><path d="M0 360H1200" stroke="#fff" fill="none" stroke-width="2" stroke-opacity=".12"/><path d="M0 420H1200" stroke="#fff" fill="none" stroke-width="2" stroke-opacity=".12"/><path d="M0 480H1200" stroke="#fff" fill="none" stroke-width="2" stroke-opacity=".12"/><path d="M0 540H1200" stroke="#fff" fill="none" stroke-width="2" stroke-opacity=".12"/><path d="M0 600H1200" stroke="#fff" fill="none" stroke-width="2" stroke-opacity=".12"/><path d="M0 660H1200" stroke="#fff" fill="none" stroke-width="2" stroke-opacity=".12"/><path d="M0 720H1200" stroke="#fff" fill="none" stroke-width="2" stroke-opacity=".12"/><path d="M0 780H1200" stroke="#fff" fill="none" stroke-width="2" stroke-opacity=".12"/><path d="M0 840H1200" stroke="#fff" fill="none" stroke-width="2" stroke-opacity=".12"/><path d="M0 900H1200" stroke="#fff" fill="none" stroke-width="2" stroke-opacity=".12"/><path d="M0 960H1200" stroke="#fff" fill="none" stroke-width="2" stroke-opacity=".12"/><path d="M0 1020H1200" stroke="#fff" fill="none" stroke-width="2" stroke-opacity=".12"/><path d="M0 1080H1200" stroke="#fff" fill="none" stroke-width="2" stroke-opacity=".12"/><path d="M0 1140H1200" stroke="#fff" fill="none" stroke-width="2" stroke-opacity=".12"/><path d="M0 1200H1200" stroke="#fff" fill="none" stroke-width="2" stroke-opacity=".12"/><path d="M0 1260H1200" stroke="#fff" fill="none" stroke-width="2" stroke-opacity=".12"/><path d="M0 1320H1200" stroke="#fff" fill="none" stroke-width="2" stroke-opacity=".12"/><path d="M0 1380H1200" stroke="#fff" fill="none" stroke-width="2" stroke-opacity=".12"/><path d="M0 1440H1200" stroke="#fff" fill="none" stroke-width="2" stroke-opacity=".12"/><path d="M0 1500H1200" stroke="#fff" fill="none" stroke-width="2" stroke-opacity=".12"/><circle cx="600" cy="750" r="80" stroke="#ff6a1f" fill="none" stroke-width="2" stroke-opacity=".55"/><circle cx="600" cy="750" r="170" stroke="#ff6a1f" fill="none" stroke-width="2" stroke-opacity=".55"/><circle cx="600" cy="750" r="260" stroke="#ff6a1f" fill="none" stroke-width="2" stroke-opacity=".55"/><circle cx="600" cy="750" r="350" stroke="#ff6a1f" fill="none" stroke-width="2" stroke-opacity=".55"/><circle cx="600" cy="750" r="440" stroke="#ff6a1f" fill="none" stroke-width="2" stroke-opacity=".55"/></svg>