<svg xmlns="http://www.w3.org/2000/svg" viewBox="0 0 1600 1000"><rect width="1600" height="1000" fill="#0d0d0d"/><path d="M-1000 1000L0 0" stroke="#fff" fill="none" stroke-width="2" stroke-opacity=".3"/><path d="M-964 1000L36 0" stroke="#fff" fill="none" stroke-width="2" stroke-opacity=".3"/><path d="M-928 1000L72 0" stroke="#fff" fill="none" stroke-width="2" stroke-opacity=".3"/><path d="M-892 1000L108 0" stroke="#fff" fill="none" stroke-width="2" stroke-opacity=".3"/><path d="M-856 1000L144 0" stroke="#fff" fill="none" stroke-width="2" stroke-opacity=".3"/><path d="M-820 1000L180 0" stroke="#fff" fill="none" stroke-width="2" stroke-opacity=".3"/><path d="M-784 1000L216 0" stroke="#fff" fill="none" stroke-width="2" stroke-opacity=".3"/><path d="M-748 1000L252 0" stroke="#fff" fill="none" stroke-width="2" stroke-opacity=".3"/><path d="M-712 1000L288 0" stroke="#fff" fill="none" stroke-width="2" stroke-opacity=".3"/><path d="M-676 1000L324 0" stroke="#fff" fill="none" stroke-width="2" stroke-opacity=".3"/><path d="M-640 1000L360 0" stroke="#fff" fill="none" stroke-width="2" stroke-opacity=".3"/><path d="M-604 1000L396 0" stroke="#fff" fill="none" stroke-width="2" stroke-opacity=".3"/><path d="M-568 1000L432 0" stroke="#fff" fill="none" stroke-width="2" stroke-opacity=".3"/><path d="M-532 1000L468 0" stroke="#fff" fill="none" stroke-width="2" stroke-opacity=".3"/><path d="M-496 1000L504 0" stroke="#fff" fill="none" stroke-width="2" stroke-opacity=".3"/><path d="M-460 1000L540 0" stroke="#fff" fill="none" stroke-width="2" stroke-opacity=".3"/><path d="M-424 1000L576 0" stroke="#fff" fill="none" stroke-width="2" stroke-opacity=".3"/><path d="M-388 1000L612 0" stroke="#fff" fill="none" stroke-width="2" stroke-opacity=".3"/><path d="M-352 1000L648 0" stroke="#fff" fill="none" stroke-width="2" stroke-opacity=".3"/><path d="M-316 1000L684 0" stroke="#fff" fill="none" stroke-width="2" stroke-opacity=".3"/><path d="M-280 1000L720 0" stroke="#fff" fill="none" stroke-width="2" stroke-opacity=".3"/><path d="M-244 1000L756 0" stroke="#fff" fill="none" stroke-width="2" stroke-opacity=".3"/><path d="M-208 1000L792 0" stroke="#fff" fill="none" stroke-width="2" stroke-opacity=".3"/><path d="M-172 1000L828 0" stroke="#fff" fill="none" stroke-width="2" stroke-opacity=".3"/><path d="M-136 1000L864 0" stroke="#fff" fill="none" stroke-width="2" stroke-opacity=".3"/><path d="M-100 1000L900 0" stroke="#fff" fill="none" stroke-width="2" stroke-opacity=".3"/><path d="M-64 1000L936 0" stroke="#fff" fill="none" stroke-width="2" stroke-opacity=".3"/><path d="M-28 1000L972 0" stroke="#fff" fill="none" stroke-width="2" stroke-opacity=".3"/><path d="M8 1000L1008 0" stroke="#fff" fill="none" stroke-width="2" stroke-opacity=".3"/><path d="M44 1000L1044 0" stroke="#fff" fill="none" stroke-width="2" stroke-opacity=".3"/><path d="M80 1000L1080 0" stroke="#fff" fill="none" stroke-width="2" stroke-opacity=".3"/><path d="M116 1000L1116 0" stroke="#fff" fill="none" stroke-width="2" stroke-opacity=".3"/><path d="M152 1000L1152 0" stroke="#fff" fill="none" stroke-width="2" stroke-opacity=".3"/><path d="M188 1000L1188 0" stroke="#fff" fill="none" stroke-width="2" stroke-opacity=".3"/><path d="M224 1000L1224 0" stroke="#fff" fill="none" stroke-width="2" stroke-opacity=".3"/><path d="M260 1000L1260 0" stroke="#fff" fill="none" stroke-width="2" stroke-opacity=".3"/><path d="M296 1000L1296 0" stroke="#fff" fill="none" stroke-width="2" stroke-opacity=".3"/><path d="M332 1000L1332 0" stroke="#fff" fill="none" stroke-width="2" stroke-opacity=".3"/><path d="M368 1000L1368 0" stroke="#fff" fill="none" stroke-width="2" stroke-opacity=".3"/><path d="M404 1000L1404 0" stroke="#fff" fill="none" stroke-width="2" stroke-opacity=".3"/><path d="M440 1000L1440 0" stroke="#fff" fill="none" stroke-width="2" stroke-opacity=".3"/><path d="M476 1000L1476 0" stroke="#fff" fill="none" stroke-width="2" stroke-opacity=".3"/><path d="M512 1000L1512 0" stroke="#fff" fill="none" stroke-width="2" stroke-opacity=".3"/><path d="M548 1000L1548 0" stroke="#fff" fill="none" stroke-width="2" stroke-opacity=".3"/><path d="M584 1000L1584 0" stroke="#fff" fill="none" stroke-width="2" stroke-opacity=".3"/><path d="M620 1000L1620 0" stroke="#fff" fill="none" stroke-width="2" stroke-opacity=".3"/><path d="M656 1000L1656 0" stroke="#fff" fill="none" stroke-width="2" stroke-opacity=".3"/><path d="M692 1000L1692 0" stroke="#fff" fill="none" stroke-width="2" stroke-opacity=".3"/><path d="M728 1000L1728 0" stroke="#fff" fill="none" stroke-width="2" stroke-opacity=".3"/><path d="M764 1000L1764 0" stroke="#fff" fill="none" stroke-width="2" stroke-opacity=".3"/><path d="M800 1000L1800 0" stroke="#fff" fill="none" stroke-width="2" stroke-opacity=".3"/><path d="M836 1000L1836 0" stroke="#fff" fill="none" stroke-width="2" stroke-opacity=".3"/><path d="M872 1000L1872 0" stroke="#fff" fill="none" stroke-width="2" stroke-opacity=".3"/><path d="M908 1000L1908 0" stroke="#fff" fill="none" stroke-width="2" stroke-opacity=".3"/><path d="M944 1000L1944 0" stroke="#fff" fill="none" stroke-width="2" stroke-opacity=".3"/><path d="M980 1000L1980 0" stroke="#fff" fill="none" stroke-width="2" stroke-opacity=".3"/><path d="M1016 1000L2016 0" stroke="#fff" fill="none" stroke-width="2" stroke-opacity=".3"/><path d="M1052 1000L2052 0" stroke="#fff" fill="none" stroke-width="2" stroke-opacity=".3"/><path d="M1088 1000L2088 0" stroke="#fff" fill="none" stroke-width="2" stroke-opacity=".3"/><path d="M1124 1000L2124 0" stroke="#fff" fill="none" stroke-width="2" stroke-opacity=".3"/><path d="M1160 1000L2160 0" stroke="#fff" fill="none" stroke-width="2" stroke-opacity=".3"/><path d="M1196 1000L2196 0" stroke="#fff" fill="none" stroke-width="2" stroke-opacity=".3"/><path d="M1232 1000L2232 0" stroke="#fff" fill="none" stroke-width="2" stroke-opacity=".3"/><path d="M1268 1000L2268 0" stroke="#fff" fill="none" stroke-width="2" stroke-opacity=".3"/><path d="M1304 1000L2304 0" stroke="#fff" fill="none" stroke-width="2" stroke-opacity=".3"/><path d="M1340 1000L2340 0" stroke="#fff" fill="none" stroke-width="2" stroke-opacity=".3"/><path d="M1376 1000L2376 0" stroke="#fff" fill="none" stroke-width="2" stroke-opacity=".3"/><path d="M1412 1000L2412 0" stroke="#fff" fill="none" stroke-width="2" stroke-opacity=".3"/><path d="M1448 1000L2448 0" stroke="#fff" fill="none" stroke-width="2" stroke-opacity=".3"/><path d="M1484 1000L2484 0" stroke="#fff" fill="none" stroke-width="2" stroke-opacity=".3"/><path d="M1520 1000L2520 0" stroke="#fff" fill="none" stroke-width="2" stroke-opacity=".3"/><path d="M1556 1000L2556 0" stroke="#fff" fill="none" stroke-width="2" stroke-opacity=".3"/><path d="M1592 1000L2592 0" stroke="#fff" fill="none" stroke-width="2" stroke-opacity=".3"/><text x="32" y="968" font-family="monospace" font-size="26" fill="#ff6a1f" fill-opacity=".9">nextjs-seo-checkli · 01</text></svg>