<svg xmlns="http://www.w3.org/2000/svg" viewBox="0 0 1000 1250"><rect width="1000" height="1250" fill="#0d0d0d"/><circle cx="50" cy="50" r="3" fill="#fff" fill-opacity=".5"/><circle cx="50" cy="100" r="4" fill="#fff" fill-opacity=".5"/><circle cx="50" cy="150" r="5" fill="#fff" fill-opacity=".5"/><circle cx="50" cy="200" r="6" fill="#fff" fill-opacity=".5"/><circle cx="50" cy="250" r="7" fill="#fff" fill-opacity=".5"/><circle cx="50" cy="300" r="8" fill="#fff" fill-opacity=".5"/><circle cx="50" cy="350" r="2" fill="#fff" fill-opacity=".5"/><circle cx="50" cy="400" r="3" fill="#fff" fill-opacity=".5"/><circle cx="50" cy="450" r="4" fill="#fff" fill-opacity=".5"/><circle cx="50" cy="500" r="5" fill="#fff" fill-opacity=".5"/><circle cx="50" cy="550" r="6" fill="#fff" fill-opacity=".5"/><circle cx="50" cy="600" r="7" fill="#fff" fill-opacity=".5"/><circle cx="50" cy="650" r="8" fill="#fff" fill-opacity=".5"/><circle cx="50" cy="700" r="2" fill="#fff" fill-opacity=".5"/><circle cx="50" cy="750" r="3" fill="#fff" fill-opacity=".5"/><circle cx="50" cy="800" r="4" fill="#fff" fill-opacity=".5"/><circle cx="50" cy="850" r="5" fill="#fff" fill-opacity=".5"/><circle cx="50" cy="900" r="6" fill="#fff" fill-opacity=".5"/><circle cx="50" cy="950" r="7" fill="#fff" fill-opacity=".5"/><circle cx="50" cy="1000" r="8" fill="#fff" fill-opacity=".5"/><circle cx="50" cy="1050" r="2" fill="#fff" fill-opacity=".5"/><circle cx="50" cy="1100" r="3" fill="#fff" fill-opacity=".5"/><circle cx="50" cy="1150" r="4" fill="#fff" fill-opacity=".5"/><circle cx="50" cy="1200" r="5" fill="#fff" fill-opacity=".5"/><circle cx="100" cy="50" r="4" fill="#fff" fill-opacity=".5"/><circle cx="100" cy="100" r="6" fill="#fff" fill-opacity=".5"/><circle cx="100" cy="150" r="8" fill="#fff" fill-opacity=".5"/><circle cx="100" cy="200" r="3" fill="#fff" fill-opacity=".5"/><circle cx="100" cy="250" r="5" fill="#fff" fill-opacity=".5"/><circle cx="100" cy="300" r="7" fill="#fff" fill-opacity=".5"/><circle cx="100" cy="350" r="2" fill="#fff" fill-opacity=".5"/><circle cx="100" cy="400" r="4" fill="#fff" fill-opacity=".5"/><circle cx="100" cy="450" r="6" fill="#fff" fill-opacity=".5"/><circle cx="100" cy="500" r="8" fill="#fff" fill-opacity=".5"/><circle cx="100" cy="550" r="3" fill="#fff" fill-opacity=".5"/><circle cx="100" cy="600" r="5" fill="#fff" fill-opacity=".5"/><circle cx="100" cy="650" r="7" fill="#fff" fill-opacity=".5"/><circle cx="100" cy="700" r="2" fill="#fff" fill-opacity=".5"/><circle cx="100" cy="750" r="4" fill="#fff" fill-opacity=".5"/><circle cx="100" cy="800" r="6" fill="#fff" fill-opacity=".5"/><circle cx="100" cy="850" r="8" fill="#fff" fill-opacity=".5"/><circle cx="100" cy="900" r="3" fill="#fff" fill-opacity=".5"/><circle cx="100" cy="950" r="5" fill="#fff" fill-opacity=".5"/><circle cx="100" cy="1000" r="7" fill="#fff" fill-opacity=".5"/><circle cx="100" cy="1050" r="2" fill="#fff" fill-opacity=".5"/><circle cx="100" cy="1100" r="4" fill="#fff" fill-opacity=".5"/><circle cx="100" cy="1150" r="6" fill="#fff" fill-opacity=".5"/><circle cx="100" cy="1200" r="8" fill="#fff" fill-opacity=".5"/><circle cx="150" cy="50" r="5" fill="#fff" fill-opacity=".5"/><circle cx="150" cy="100" r="8" fill="#fff" fill-opacity=".5"/><circle cx="150" cy="150" r="4" fill="#fff" fill-opacity=".5"/><circle cx="150" cy="200" r="7" fill="#fff" fill-opacity=".5"/><circle cx="150" cy="250" r="3" fill="#fff" fill-opacity=".5"/><circle cx="150" cy="300" r="6" fill="#fff" fill-opacity=".5"/><circle cx="150" cy="350" r="2" fill="#fff" fill-opacity=".5"/><circle cx="150" cy="400" r="5" fill="#fff" fill-opacity=".5"/><circle cx="150" cy="450" r="8" fill="#fff" fill-opacity=".5"/><circle cx="150" cy="500" r="4" fill="#fff" fill-opacity=".5"/><circle cx="150" cy="550" r="7" fill="#fff" fill-opacity=".5"/><circle cx="150" cy="600" r="3" fill="#fff" fill-opacity=".5"/><circle cx="150" cy="650" r="6" fill="#fff" fill-opacity=".5"/><circle cx="150" cy="700" r="2" fill="#fff" fill-opacity=".5"/><circle cx="150" cy="750" r="5" fill="#fff" fill-opacity=".5"/><circle cx="150" cy="800" r="8" fill="#fff" fill-opacity=".5"/><circle cx="150" cy="850" r="4" fill="#fff" fill-opacity=".5"/><circle cx="150" cy="900" r="7" fill="#fff" fill-opacity=".5"/><circle cx="150" cy="950" r="3" fill="#fff" fill-opacity=".5"/><circle cx="150" cy="1000" r="6" fill="#fff" fill-opacity=".5"/><circle cx="150" cy="1050" r="2" fill="#fff" fill-opacity=".5"/><circle cx="150" cy="1100" r="5" fill="#fff" fill-opacity=".5"/><circle cx="150" cy="1150" r="8" fill="#fff" fill-opacity=".5"/><circle cx="150" cy="1200" r="4" fill="#fff" fill-opacity=".5"/><circle cx="200" cy="50" r="6" fill="#fff" fill-opacity=".5"/><circle cx="200" cy="100" r="3" fill="#fff" fill-opacity=".5"/><circle cx="200" cy="150" r="7" fill="#fff" fill-opacity=".5"/><circle cx="200" cy="200" r="4" fill="#fff" fill-opacity=".5"/><circle cx="200" cy="250" r="8" fill="#fff" fill-opacity=".5"/><circle cx="200" cy="300" r="5" fill="#fff" fill-opacity=".5"/><circle cx="200" cy="350" r="2" fill="#fff" fill-opacity=".5"/><circle cx="200" cy="400" r="6" fill="#fff" fill-opacity=".5"/><circle cx="200" cy="450" r="3" fill="#fff" fill-opacity=".5"/><circle cx="200" cy="500" r="7" fill="#fff" fill-opacity=".5"/><circle cx="200" cy="550" r="4" fill="#fff" fill-opacity=".5"/><circle cx="200" cy="600" r="8" fill="#fff" fill-opacity=".5"/><circle cx="200" cy="650" r="5" fill="#fff" fill-opacity=".5"/><circle cx="200" cy="700" r="2" fill="#fff" fill-opacity=".5"/><circle cx="200" cy="750" r="6" fill="#fff" fill-opacity=".5"/><circle cx="200" cy="800" r="3" fill="#fff" fill-opacity=".5"/><circle cx="200" cy="850" r="7" fill="#fff" fill-opacity=".5"/><circle cx="200" cy="900" r="4" fill="#fff" fill-opacity=".5"/><circle cx="200" cy="950" r="8" fill="#fff" fill-opacity=".5"/><circle cx="200" cy="1000" r="5" fill="#fff" fill-opacity=".5"/><circle cx="200" cy="1050" r="2" fill="#fff" fill-opacity=".5"/><circle cx="200" cy="1100" r="6" fill="#fff" fill-opacity=".5"/><circle cx="200" cy="1150" r="3" fill="#fff" fill-opacity=".5"/><circle cx="200" cy="1200" r="7" fill="#fff" fill-opacity=".5"/><circle cx="250" cy="50" r="7" fill="#fff" fill-opacity=".5"/><circle cx="250" cy="100" r="5" fill="#fff" fill-opacity=".5"/><circle cx="250" cy="150" r="3" fill="#fff" fill-opacity=".5"/><circle cx="250" cy="200" r="8" fill="#fff" fill-opacity=".5"/><circle cx="250" cy="250" r="6" fill="#fff" fill-opacity=".5"/><circle cx="250" cy="300" r="4" fill="#fff" fill-opacity=".5"/><circle cx="250" cy="350" r="2" fill="#fff" fill-opacity=".5"/><circle cx="250" cy="400" r="7" fill="#fff" fill-opacity=".5"/><circle cx="250" cy="450" r="5" fill="#fff" fill-opacity=".5"/><circle cx="250" cy="500" r="3" fill="#fff" fill-opacity=".5"/><circle cx="250" cy="550" r="8" fill="#fff" fill-opacity=".5"/><circle cx="250" cy="600" r="6" fill="#fff" fill-opacity=".5"/><circle cx="250" cy="650" r="4" fill="#fff" fill-opacity=".5"/><circle cx="250" cy="700" r="2" fill="#fff" fill-opacity=".5"/><circle cx="250" cy="750" r="7" fill="#fff" fill-opacity=".5"/><circle cx="250" cy="800" r="5" fill="#fff" fill-opacity=".5"/><circle cx="250" cy="850" r="3" fill="#fff" fill-opacity=".5"/><circle cx="250" cy="900" r="8" fill="#fff" fill-opacity=".5"/><circle cx="250" cy="950" r="6" fill="#fff" fill-opacity=".5"/><circle cx="250" cy="1000" r="4" fill="#fff" fill-opacity=".5"/><circle cx="250" cy="1050" r="2" fill="#fff" fill-opacity=".5"/><circle cx="250" cy="1100" r="7" fill="#fff" fill-opacity=".5"/><circle cx="250" cy="1150" r="5" fill="#fff" fill-opacity=".5"/><circle cx="250" cy="1200" r="3" fill="#fff" fill-opacity=".5"/><circle cx="300" cy="50" r="8" fill="#fff" fill-opacity=".5"/><circle cx="300" cy="100" r="7" fill="#fff" fill-opacity=".5"/><circle cx="300" cy="150" r="6" fill="#fff" fill-opacity=".5"/><circle cx="300" cy="200" r="5" fill="#fff" fill-opacity=".5"/><circle cx="300" cy="250" r="4" fill="#fff" fill-opacity=".5"/><circle cx="300" cy="300" r="3" fill="#fff" fill-opacity=".5"/><circle cx="300" cy="350" r="2" fill="#fff" fill-opacity=".5"/><circle cx="300" cy="400" r="8" fill="#fff" fill-opacity=".5"/><circle cx="300" cy="450" r="7" fill="#fff" fill-opacity=".5"/><circle cx="300" cy="500" r="6" fill="#fff" fill-opacity=".5"/><circle cx="300" cy="550" r="5" fill="#fff" fill-opacity=".5"/><circle cx="300" cy="600" r="4" fill="#fff" fill-opacity=".5"/><circle cx="300" cy="650" r="3" fill="#fff" fill-opacity=".5"/><circle cx="300" cy="700" r="2" fill="#fff" fill-opacity=".5"/><circle cx="300" cy="750" r="8" fill="#fff" fill-opacity=".5"/><circle cx="300" cy="800" r="7" fill="#fff" fill-opacity=".5"/><circle cx="300" cy="850" r="6" fill="#fff" fill-opacity=".5"/><circle cx="300" cy="900" r="5" fill="#fff" fill-opacity=".5"/><circle cx="300" cy="950" r="4" fill="#fff" fill-opacity=".5"/><circle cx="300" cy="1000" r="3" fill="#fff" fill-opacity=".5"/><circle cx="300" cy="1050" r="2" fill="#fff" fill-opacity=".5"/><circle cx="300" cy="1100" r="8" fill="#fff" fill-opacity=".5"/><circle cx="300" cy="1150" r="7" fill="#fff" fill-opacity=".5"/><circle cx="300" cy="1200" r="6" fill="#fff" fill-opacity=".5"/><circle cx="350" cy="50" r="2" fill="#fff" fill-opacity=".5"/><circle cx="350" cy="100" r="2" fill="#fff" fill-opacity=".5"/><circle cx="350" cy="150" r="2" fill="#fff" fill-opacity=".5"/><circle cx="350" cy="200" r="2" fill="#fff" fill-opacity=".5"/><circle cx="350" cy="250" r="2" fill="#fff" fill-opacity=".5"/><circle cx="350" cy="300" r="2" fill="#fff" fill-opacity=".5"/><circle cx="350" cy="350" r="2" fill="#fff" fill-opacity=".5"/><circle cx="350" cy="400" r="2" fill="#fff" fill-opacity=".5"/><circle cx="350" cy="450" r="2" fill="#fff" fill-opacity=".5"/><circle cx="350" cy="500" r="2" fill="#fff" fill-opacity=".5"/><circle cx="350" cy="550" r="2" fill="#fff" fill-opacity=".5"/><circle cx="350" cy="600" r="2" fill="#fff" fill-opacity=".5"/><circle cx="350" cy="650" r="2" fill="#fff" fill-opacity=".5"/><circle cx="350" cy="700" r="2" fill="#fff" fill-opacity=".5"/><circle cx="350" cy="750" r="2" fill="#fff" fill-opacity=".5"/><circle cx="350" cy="800" r="2" fill="#fff" fill-opacity=".5"/><circle cx="350" cy="850" r="2" fill="#fff" fill-opacity=".5"/><circle cx="350" cy="900" r="2" fill="#fff" fill-opacity=".5"/><circle cx="350" cy="950" r="2" fill="#fff" fill-opacity=".5"/><circle cx="350" cy="1000" r="2" fill="#fff" fill-opacity=".5"/><circle cx="350" cy="1050" r="2" fill="#fff" fill-opacity=".5"/><circle cx="350" cy="1100" r="2" fill="#fff" fill-opacity=".5"/><circle cx="350" cy="1150" r="2" fill="#fff" fill-opacity=".5"/><circle cx="350" cy="1200" r="2" fill="#fff" fill-opacity=".5"/><circle cx="400" cy="50" r="3" fill="#fff" fill-opacity=".5"/><circle cx="400" cy="100" r="4" fill="#fff" fill-opacity=".5"/><circle cx="400" cy="150" r="5" fill="#fff" fill-opacity=".5"/><circle cx="400" cy="200" r="6" fill="#fff" fill-opacity=".5"/><circle cx="400" cy="250" r="7" fill="#fff" fill-opacity=".5"/><circle cx="400" cy="300" r="8" fill="#fff" fill-opacity=".5"/><circle cx="400" cy="350" r="2" fill="#fff" fill-opacity=".5"/><circle cx="400" cy="400" r="3" fill="#fff" fill-opacity=".5"/><circle cx="400" cy="450" r="4" fill="#fff" fill-opacity=".5"/><circle cx="400" cy="500" r="5" fill="#fff" fill-opacity=".5"/><circle cx="400" cy="550" r="6" fill="#fff" fill-opacity=".5"/><circle cx="400" cy="600" r="7" fill="#fff" fill-opacity=".5"/><circle cx="400" cy="650" r="8" fill="#fff" fill-opacity=".5"/><circle cx="400" cy="700" r="2" fill="#fff" fill-opacity=".5"/><circle cx="400" cy="750" r="3" fill="#fff" fill-opacity=".5"/><circle cx="400" cy="800" r="4" fill="#fff" fill-opacity=".5"/><circle cx="400" cy="850" r="5" fill="#fff" fill-opacity=".5"/><circle cx="400" cy="900" r="6" fill="#fff" fill-opacity=".5"/><circle cx="400" cy="950" r="7" fill="#fff" fill-opacity=".5"/><circle cx="400" cy="1000" r="8" fill="#fff" fill-opacity=".5"/><circle cx="400" cy="1050" r="2" fill="#fff" fill-opacity=".5"/><circle cx="400" cy="1100" r="3" fill="#fff" fill-opacity=".5"/><circle cx="400" cy="1150" r="4" fill="#fff" fill-opacity=".5"/><circle cx="400" cy="1200" r="5" fill="#fff" fill-opacity=".5"/><circle cx="450" cy="50" r="4" fill="#fff" fill-opacity=".5"/><circle cx="450" cy="100" r="6" fill="#fff" fill-opacity=".5"/><circle cx="450" cy="150" r="8" fill="#fff" fill-opacity=".5"/><circle cx="450" cy="200" r="3" fill="#fff" fill-opacity=".5"/><circle cx="450" cy="250" r="5" fill="#fff" fill-opacity=".5"/><circle cx="450" cy="300" r="7" fill="#fff" fill-opacity=".5"/><circle cx="450" cy="350" r="2" fill="#fff" fill-opacity=".5"/><circle cx="450" cy="400" r="4" fill="#fff" fill-opacity=".5"/><circle cx="450" cy="450" r="6" fill="#fff" fill-opacity=".5"/><circle cx="450" cy="500" r="8" fill="#fff" fill-opacity=".5"/><circle cx="450" cy="550" r="3" fill="#fff" fill-opacity=".5"/><circle cx="450" cy="600" r="5" fill="#fff" fill-opacity=".5"/><circle cx="450" cy="650" r="7" fill="#fff" fill-opacity=".5"/><circle cx="450" cy="700" r="2" fill="#fff" fill-opacity=".5"/><circle cx="450" cy="750" r="4" fill="#fff" fill-opacity=".5"/><circle cx="450" cy="800" r="6" fill="#fff" fill-opacity=".5"/><circle cx="450" cy="850" r="8" fill="#fff" fill-opacity=".5"/><circle cx="450" cy="900" r="3" fill="#fff" fill-opacity=".5"/><circle cx="450" cy="950" r="5" fill="#fff" fill-opacity=".5"/><circle cx="450" cy="1000" r="7" fill="#fff" fill-opacity=".5"/><circle cx="450" cy="1050" r="2" fill="#fff" fill-opacity=".5"/><circle cx="450" cy="1100" r="4" fill="#fff" fill-opacity=".5"/><circle cx="450" cy="1150" r="6" fill="#fff" fill-opacity=".5"/><circle cx="450" cy="1200" r="8" fill="#fff" fill-opacity=".5"/><circle cx="500" cy="50" r="5" fill="#fff" fill-opacity=".5"/><circle cx="500" cy="100" r="8" fill="#fff" fill-opacity=".5"/><circle cx="500" cy="150" r="4" fill="#fff" fill-opacity=".5"/><circle cx="500" cy="200" r="7" fill="#fff" fill-opacity=".5"/><circle cx="500" cy="250" r="3" fill="#fff" fill-opacity=".5"/><circle cx="500" cy="300" r="6" fill="#fff" fill-opacity=".5"/><circle cx="500" cy="350" r="2" fill="#fff" fill-opacity=".5"/><circle cx="500" cy="400" r="5" fill="#fff" fill-opacity=".5"/><circle cx="500" cy="450" r="8" fill="#fff" fill-opacity=".5"/><circle cx="500" cy="500" r="4" fill="#fff" fill-opacity=".5"/><circle cx="500" cy="550" r="7" fill="#fff" fill-opacity=".5"/><circle cx="500" cy="600" r="3" fill="#fff" fill-opacity=".5"/><circle cx="500" cy="650" r="6" fill="#fff" fill-opacity=".5"/><circle cx="500" cy="700" r="2" fill="#fff" fill-opacity=".5"/><circle cx="500" cy="750" r="5" fill="#fff" fill-opacity=".5"/><circle cx="500" cy="800" r="8" fill="#fff" fill-opacity=".5"/><circle cx="500" cy="850" r="4" fill="#fff" fill-opacity=".5"/><circle cx="500" cy="900" r="7" fill="#fff" fill-opacity=".5"/><circle cx="500" cy="950" r="3" fill="#fff" fill-opacity=".5"/><circle cx="500" cy="1000" r="6" fill="#fff" fill-opacity=".5"/><circle cx="500" cy="1050" r="2" fill="#fff" fill-opacity=".5"/><circle cx="500" cy="1100" r="5" fill="#fff" fill-opacity=".5"/><circle cx="500" cy="1150" r="8" fill="#fff" fill-opacity=".5"/><circle cx="500" cy="1200" r="4" fill="#fff" fill-opacity=".5"/><circle cx="550" cy="50" r="6" fill="#fff" fill-opacity=".5"/><circle cx="550" cy="100" r="3" fill="#fff" fill-opacity=".5"/><circle cx="550" cy="150" r="7" fill="#fff" fill-opacity=".5"/><circle cx="550" cy="200" r="4" fill="#fff" fill-opacity=".5"/><circle cx="550" cy="250" r="8" fill="#fff" fill-opacity=".5"/><circle cx="550" cy="300" r="5" fill="#fff" fill-opacity=".5"/><circle cx="550" cy="350" r="2" fill="#fff" fill-opacity=".5"/><circle cx="550" cy="400" r="6" fill="#fff" fill-opacity=".5"/><circle cx="550" cy="450" r="3" fill="#fff" fill-opacity=".5"/><circle cx="550" cy="500" r="7" fill="#fff" fill-opacity=".5"/><circle cx="550" cy="550" r="4" fill="#fff" fill-opacity=".5"/><circle cx="550" cy="600" r="8" fill="#fff" fill-opacity=".5"/><circle cx="550" cy="650" r="5" fill="#fff" fill-opacity=".5"/><circle cx="550" cy="700" r="2" fill="#fff" fill-opacity=".5"/><circle cx="550" cy="750" r="6" fill="#fff" fill-opacity=".5"/><circle cx="550" cy="800" r="3" fill="#fff" fill-opacity=".5"/><circle cx="550" cy="850" r="7" fill="#fff" fill-opacity=".5"/><circle cx="550" cy="900" r="4" fill="#fff" fill-opacity=".5"/><circle cx="550" cy="950" r="8" fill="#fff" fill-opacity=".5"/><circle cx="550" cy="1000" r="5" fill="#fff" fill-opacity=".5"/><circle cx="550" cy="1050" r="2" fill="#fff" fill-opacity=".5"/><circle cx="550" cy="1100" r="6" fill="#fff" fill-opacity=".5"/><circle cx="550" cy="1150" r="3" fill="#fff" fill-opacity=".5"/><circle cx="550" cy="1200" r="7" fill="#fff" fill-opacity=".5"/><circle cx="600" cy="50" r="7" fill="#fff" fill-opacity=".5"/><circle cx="600" cy="100" r="5" fill="#fff" fill-opacity=".5"/><circle cx="600" cy="150" r="3" fill="#fff" fill-opacity=".5"/><circle cx="600" cy="200" r="8" fill="#fff" fill-opacity=".5"/><circle cx="600" cy="250" r="6" fill="#fff" fill-opacity=".5"/><circle cx="600" cy="300" r="4" fill="#fff" fill-opacity=".5"/><circle cx="600" cy="350" r="2" fill="#fff" fill-opacity=".5"/><circle cx="600" cy="400" r="7" fill="#fff" fill-opacity=".5"/><circle cx="600" cy="450" r="5" fill="#fff" fill-opacity=".5"/><circle cx="600" cy="500" r="3" fill="#fff" fill-opacity=".5"/><circle cx="600" cy="550" r="8" fill="#fff" fill-opacity=".5"/><circle cx="600" cy="600" r="6" fill="#fff" fill-opacity=".5"/><circle cx="600" cy="650" r="4" fill="#fff" fill-opacity=".5"/><circle cx="600" cy="700" r="2" fill="#fff" fill-opacity=".5"/><circle cx="600" cy="750" r="7" fill="#fff" fill-opacity=".5"/><circle cx="600" cy="800" r="5" fill="#fff" fill-opacity=".5"/><circle cx="600" cy="850" r="3" fill="#fff" fill-opacity=".5"/><circle cx="600" cy="900" r="8" fill="#fff" fill-opacity=".5"/><circle cx="600" cy="950" r="6" fill="#fff" fill-opacity=".5"/><circle cx="600" cy="1000" r="4" fill="#fff" fill-opacity=".5"/><circle cx="600" cy="1050" r="2" fill="#fff" fill-opacity=".5"/><circle cx="600" cy="1100" r="7" fill="#fff" fill-opacity=".5"/><circle cx="600" cy="1150" r="5" fill="#fff" fill-opacity=".5"/><circle cx="600" cy="1200" r="3" fill="#fff" fill-opacity=".5"/><circle cx="650" cy="50" r="8" fill="#fff" fill-opacity=".5"/><circle cx="650" cy="100" r="7" fill="#fff" fill-opacity=".5"/><circle cx="650" cy="150" r="6" fill="#fff" fill-opacity=".5"/><circle cx="650" cy="200" r="5" fill="#fff" fill-opacity=".5"/><circle cx="650" cy="250" r="4" fill="#fff" fill-opacity=".5"/><circle cx="650" cy="300" r="3" fill="#fff" fill-opacity=".5"/><circle cx="650" cy="350" r="2" fill="#fff" fill-opacity=".5"/><circle cx="650" cy="400" r="8" fill="#fff" fill-opacity=".5"/><circle cx="650" cy="450" r="7" fill="#fff" fill-opacity=".5"/><circle cx="650" cy="500" r="6" fill="#fff" fill-opacity=".5"/><circle cx="650" cy="550" r="5" fill="#fff" fill-opacity=".5"/><circle cx="650" cy="600" r="4" fill="#fff" fill-opacity=".5"/><circle cx="650" cy="650" r="3" fill="#fff" fill-opacity=".5"/><circle cx="650" cy="700" r="2" fill="#fff" fill-opacity=".5"/><circle cx="650" cy="750" r="8" fill="#fff" fill-opacity=".5"/><circle cx="650" cy="800" r="7" fill="#fff" fill-opacity=".5"/><circle cx="650" cy="850" r="6" fill="#fff" fill-opacity=".5"/><circle cx="650" cy="900" r="5" fill="#fff" fill-opacity=".5"/><circle cx="650" cy="950" r="4" fill="#fff" fill-opacity=".5"/><circle cx="650" cy="1000" r="3" fill="#fff" fill-opacity=".5"/><circle cx="650" cy="1050" r="2" fill="#fff" fill-opacity=".5"/><circle cx="650" cy="1100" r="8" fill="#fff" fill-opacity=".5"/><circle cx="650" cy="1150" r="7" fill="#fff" fill-opacity=".5"/><circle cx="650" cy="1200" r="6" fill="#fff" fill-opacity=".5"/><circle cx="700" cy="50" r="2" fill="#fff" fill-opacity=".5"/><circle cx="700" cy="100" r="2" fill="#fff" fill-opacity=".5"/><circle cx="700" cy="150" r="2" fill="#fff" fill-opacity=".5"/><circle cx="700" cy="200" r="2" fill="#fff" fill-opacity=".5"/><circle cx="700" cy="250" r="2" fill="#fff" fill-opacity=".5"/><circle cx="700" cy="300" r="2" fill="#fff" fill-opacity=".5"/><circle cx="700" cy="350" r="2" fill="#fff" fill-opacity=".5"/><circle cx="700" cy="400" r="2" fill="#fff" fill-opacity=".5"/><circle cx="700" cy="450" r="2" fill="#fff" fill-opacity=".5"/><circle cx="700" cy="500" r="2" fill="#fff" fill-opacity=".5"/><circle cx="700" cy="550" r="2" fill="#fff" fill-opacity=".5"/><circle cx="700" cy="600" r="2" fill="#fff" fill-opacity=".5"/><circle cx="700" cy="650" r="2" fill="#fff" fill-opacity=".5"/><circle cx="700" cy="700" r="2" fill="#fff" fill-opacity=".5"/><circle cx="700" cy="750" r="2" fill="#fff" fill-opacity=".5"/><circle cx="700" cy="800" r="2" fill="#fff" fill-opacity=".5"/><circle cx="700" cy="850" r="2" fill="#fff" fill-opacity=".5"/><circle cx="700" cy="900" r="2" fill="#fff" fill-opacity=".5"/><circle cx="700" cy="950" r="2" fill="#fff" fill-opacity=".5"/><circle cx="700" cy="1000" r="2" fill="#fff" fill-opacity=".5"/><circle cx="700" cy="1050" r="2" fill="#fff" fill-opacity=".5"/><circle cx="700" cy="1100" r="2" fill="#fff" fill-opacity=".5"/><circle cx="700" cy="1150" r="2" fill="#fff" fill-opacity=".5"/><circle cx="700" cy="1200" r="2" fill="#fff" fill-opacity=".5"/><circle cx="750" cy="50" r="3" fill="#fff" fill-opacity=".5"/><circle cx="750" cy="100" r="4" fill="#fff" fill-opacity=".5"/><circle cx="750" cy="150" r="5" fill="#fff" fill-opacity=".5"/><circle cx="750" cy="200" r="6" fill="#fff" fill-opacity=".5"/><circle cx="750" cy="250" r="7" fill="#fff" fill-opacity=".5"/><circle cx="750" cy="300" r="8" fill="#fff" fill-opacity=".5"/><circle cx="750" cy="350" r="2" fill="#fff" fill-opacity=".5"/><circle cx="750" cy="400" r="3" fill="#fff" fill-opacity=".5"/><circle cx="750" cy="450" r="4" fill="#fff" fill-opacity=".5"/><circle cx="750" cy="500" r="5" fill="#fff" fill-opacity=".5"/><circle cx="750" cy="550" r="6" fill="#fff" fill-opacity=".5"/><circle cx="750" cy="600" r="7" fill="#fff" fill-opacity=".5"/><circle cx="750" cy="650" r="8" fill="#fff" fill-opacity=".5"/><circle cx="750" cy="700" r="2" fill="#fff" fill-opacity=".5"/><circle cx="750" cy="750" r="3" fill="#fff" fill-opacity=".5"/><circle cx="750" cy="800" r="4" fill="#fff" fill-opacity=".5"/><circle cx="750" cy="850" r="5" fill="#fff" fill-opacity=".5"/><circle cx="750" cy="900" r="6" fill="#fff" fill-opacity=".5"/><circle cx="750" cy="950" r="7" fill="#fff" fill-opacity=".5"/><circle cx="750" cy="1000" r="8" fill="#fff" fill-opacity=".5"/><circle cx="750" cy="1050" r="2" fill="#fff" fill-opacity=".5"/><circle cx="750" cy="1100" r="3" fill="#fff" fill-opacity=".5"/><circle cx="750" cy="1150" r="4" fill="#fff" fill-opacity=".5"/><circle cx="750" cy="1200" r="5" fill="#fff" fill-opacity=".5"/><circle cx="800" cy="50" r="4" fill="#fff" fill-opacity=".5"/><circle cx="800" cy="100" r="6" fill="#fff" fill-opacity=".5"/><circle cx="800" cy="150" r="8" fill="#fff" fill-opacity=".5"/><circle cx="800" cy="200" r="3" fill="#fff" fill-opacity=".5"/><circle cx="800" cy="250" r="5" fill="#fff" fill-opacity=".5"/><circle cx="800" cy="300" r="7" fill="#fff" fill-opacity=".5"/><circle cx="800" cy="350" r="2" fill="#fff" fill-opacity=".5"/><circle cx="800" cy="400" r="4" fill="#fff" fill-opacity=".5"/><circle cx="800" cy="450" r="6" fill="#fff" fill-opacity=".5"/><circle cx="800" cy="500" r="8" fill="#fff" fill-opacity=".5"/><circle cx="800" cy="550" r="3" fill="#fff" fill-opacity=".5"/><circle cx="800" cy="600" r="5" fill="#fff" fill-opacity=".5"/><circle cx="800" cy="650" r="7" fill="#fff" fill-opacity=".5"/><circle cx="800" cy="700" r="2" fill="#fff" fill-opacity=".5"/><circle cx="800" cy="750" r="4" fill="#fff" fill-opacity=".5"/><circle cx="800" cy="800" r="6" fill="#fff" fill-opacity=".5"/><circle cx="800" cy="850" r="8" fill="#fff" fill-opacity=".5"/><circle cx="800" cy="900" r="3" fill="#fff" fill-opacity=".5"/><circle cx="800" cy="950" r="5" fill="#fff" fill-opacity=".5"/><circle cx="800" cy="1000" r="7" fill="#fff" fill-opacity=".5"/><circle cx="800" cy="1050" r="2" fill="#fff" fill-opacity=".5"/><circle cx="800" cy="1100" r="4" fill="#fff" fill-opacity=".5"/><circle cx="800" cy="1150" r="6" fill="#fff" fill-opacity=".5"/><circle cx="800" cy="1200" r="8" fill="#fff" fill-opacity=".5"/><circle cx="850" cy="50" r="5" fill="#fff" fill-opacity=".5"/><circle cx="850" cy="100" r="8" fill="#fff" fill-opacity=".5"/><circle cx="850" cy="150" r="4" fill="#fff" fill-opacity=".5"/><circle cx="850" cy="200" r="7" fill="#fff" fill-opacity=".5"/><circle cx="850" cy="250" r="3" fill="#fff" fill-opacity=".5"/><circle cx="850" cy="300" r="6" fill="#fff" fill-opacity=".5"/><circle cx="850" cy="350" r="2" fill="#fff" fill-opacity=".5"/><circle cx="850" cy="400" r="5" fill="#fff" fill-opacity=".5"/><circle cx="850" cy="450" r="8" fill="#fff" fill-opacity=".5"/><circle cx="850" cy="500" r="4" fill="#fff" fill-opacity=".5"/><circle cx="850" cy="550" r="7" fill="#fff" fill-opacity=".5"/><circle cx="850" cy="600" r="3" fill="#fff" fill-opacity=".5"/><circle cx="850" cy="650" r="6" fill="#fff" fill-opacity=".5"/><circle cx="850" cy="700" r="2" fill="#fff" fill-opacity=".5"/><circle cx="850" cy="750" r="5" fill="#fff" fill-opacity=".5"/><circle cx="850" cy="800" r="8" fill="#fff" fill-opacity=".5"/><circle cx="850" cy="850" r="4" fill="#fff" fill-opacity=".5"/><circle cx="850" cy="900" r="7" fill="#fff" fill-opacity=".5"/><circle cx="850" cy="950" r="3" fill="#fff" fill-opacity=".5"/><circle cx="850" cy="1000" r="6" fill="#fff" fill-opacity=".5"/><circle cx="850" cy="1050" r="2" fill="#fff" fill-opacity=".5"/><circle cx="850" cy="1100" r="5" fill="#fff" fill-opacity=".5"/><circle cx="850" cy="1150" r="8" fill="#fff" fill-opacity=".5"/><circle cx="850" cy="1200" r="4" fill="#fff" fill-opacity=".5"/><circle cx="900" cy="50" r="6" fill="#fff" fill-opacity=".5"/><circle cx="900" cy="100" r="3" fill="#fff" fill-opacity=".5"/><circle cx="900" cy="150" r="7" fill="#fff" fill-opacity=".5"/><circle cx="900" cy="200" r="4" fill="#fff" fill-opacity=".5"/><circle cx="900" cy="250" r="8" fill="#fff" fill-opacity=".5"/><circle cx="900" cy="300" r="5" fill="#fff" fill-opacity=".5"/><circle cx="900" cy="350" r="2" fill="#fff" fill-opacity=".5"/><circle cx="900" cy="400" r="6" fill="#fff" fill-opacity=".5"/><circle cx="900" cy="450" r="3" fill="#fff" fill-opacity=".5"/><circle cx="900" cy="500" r="7" fill="#fff" fill-opacity=".5"/><circle cx="900" cy="550" r="4" fill="#fff" fill-opacity=".5"/><circle cx="900" cy="600" r="8" fill="#fff" fill-opacity=".5"/><circle cx="900" cy="650" r="5" fill="#fff" fill-opacity=".5"/><circle cx="900" cy="700" r="2" fill="#fff" fill-opacity=".5"/><circle cx="900" cy="750" r="6" fill="#fff" fill-opacity=".5"/><circle cx="900" cy="800" r="3" fill="#fff" fill-opacity=".5"/><circle cx="900" cy="850" r="7" fill="#fff" fill-opacity=".5"/><circle cx="900" cy="900" r="4" fill="#fff" fill-opacity=".5"/><circle cx="900" cy="950" r="8" fill="#fff" fill-opacity=".5"/><circle cx="900" cy="1000" r="5" fill="#fff" fill-opacity=".5"/><circle cx="900" cy="1050" r="2" fill="#fff" fill-opacity=".5"/><circle cx="900" cy="1100" r="6" fill="#fff" fill-opacity=".5"/><circle cx="900" cy="1150" r="3" fill="#fff" fill-opacity=".5"/><circle cx="900" cy="1200" r="7" fill="#fff" fill-opacity=".5"/><circle cx="950" cy="50" r="7" fill="#fff" fill-opacity=".5"/><circle cx="950" cy="100" r="5" fill="#fff" fill-opacity=".5"/><circle cx="950" cy="150" r="3" fill="#fff" fill-opacity=".5"/><circle cx="950" cy="200" r="8" fill="#fff" fill-opacity=".5"/><circle cx="950" cy="250" r="6" fill="#fff" fill-opacity=".5"/><circle cx="950" cy="300" r="4" fill="#fff" fill-opacity=".5"/><circle cx="950" cy="350" r="2" fill="#fff" fill-opacity=".5"/><circle cx="950" cy="400" r="7" fill="#fff" fill-opacity=".5"/><circle cx="950" cy="450" r="5" fill="#fff" fill-opacity=".5"/><circle cx="950" cy="500" r="3" fill="#fff" fill-opacity=".5"/><circle cx="950" cy="550" r="8" fill="#fff" fill-opacity=".5"/><circle cx="950" cy="600" r="6" fill="#fff" fill-opacity=".5"/><circle cx="950" cy="650" r="4" fill="#fff" fill-opacity=".5"/><circle cx="950" cy="700" r="2" fill="#fff" fill-opacity=".5"/><circle cx="950" cy="750" r="7" fill="#fff" fill-opacity=".5"/><circle cx="950" cy="800" r="5" fill="#fff" fill-opacity=".5"/><circle cx="950" cy="850" r="3" fill="#fff" fill-opacity=".5"/><circle cx="950" cy="900" r="8" fill="#fff" fill-opacity=".5"/><circle cx="950" cy="950" r="6" fill="#fff" fill-opacity=".5"/><circle cx="950" cy="1000" r="4" fill="#fff" fill-opacity=".5"/><circle cx="950" cy="1050" r="2" fill="#fff" fill-opacity=".5"/><circle cx="950" cy="1100" r="7" fill="#fff" fill-opacity=".5"/><circle cx="950" cy="1150" r="5" fill="#fff" fill-opacity=".5"/><circle cx="950" cy="1200" r="3" fill="#fff" fill-opacity=".5"/><text x="32" y="1218" font-family="monospace" font-size="26" fill="#ff6a1f" fill-opacity=".9">structuring-a-node · 04</text></svg>